<svg width="341" height="160" viewBox="0 0 341 160" fill="none" xmlns="http://www.w3.org/2000/svg">
<g clip-path="url(#clip0_181_2661)">
<path d="M340.6 40.4C340.732 41.06 340.864 41.72 341 42.4C338.899 43.568 336.741 44.1944 334.432 44.836C334.014 44.9544 333.596 45.0728 333.165 45.1944C332.251 45.4532 331.337 45.7104 330.422 45.9668C328.146 46.6056 325.873 47.2512 323.599 47.896C322.788 48.126 321.976 48.356 321.164 48.586C315.112 50.3004 309.069 52.048 303.028 53.8C302.744 53.882 302.461 53.9644 302.169 54.0488C276.796 61.4052 251.436 68.8068 226.133 76.4C225.835 76.4892 225.537 76.5788 225.23 76.6708C193.507 86.1908 162.035 96.428 130.848 107.581C129.704 107.99 128.559 108.398 127.416 108.807C117.573 112.321 107.769 115.934 97.9824 119.6C97.7098 119.702 97.4369 119.804 97.1559 119.91C91.3417 122.088 85.5331 124.28 79.7437 126.525C79.3254 126.687 78.9072 126.849 78.4762 127.016C76.5506 127.764 74.6263 128.514 72.7044 129.27C72.365 129.403 72.0256 129.536 71.6758 129.672C71.0522 129.916 70.429 130.161 69.8071 130.408C68.6232 130.87 67.7218 131.2 66.4391 131.2C66.3662 131.441 66.2934 131.683 66.2186 131.931C66.1181 132.251 66.0172 132.571 65.914 132.9C65.8163 133.216 65.7187 133.531 65.6182 133.856C65.0851 135.18 64.6724 136.111 63.3116 136.73C62.3339 137.068 61.3501 137.365 60.3567 137.653C59.9797 137.767 59.6027 137.881 59.2145 137.998C57.9681 138.374 56.7194 138.741 55.4703 139.108C54.6042 139.366 53.7385 139.625 52.8727 139.884C51.0581 140.426 49.2426 140.964 47.4263 141.499C45.0946 142.186 42.7652 142.881 40.4371 143.578C38.6496 144.113 36.8614 144.645 35.0723 145.175C34.213 145.43 33.3537 145.686 32.4948 145.943C31.2965 146.301 30.0966 146.654 28.8959 147.006C28.3608 147.167 28.3608 147.167 27.8149 147.331C27.325 147.474 27.325 147.474 26.8251 147.618C26.5413 147.702 26.2579 147.786 25.9658 147.872C25.2149 148 25.2149 148 24.0142 147.6C23.4383 146.564 23.2166 145.806 23.2006 144.62C23.614 143.6 23.614 143.6 24.928 142.869C25.5251 142.633 26.1255 142.405 26.7282 142.184C27.0568 142.057 27.3854 141.929 27.7236 141.798C28.8191 141.374 29.9185 140.962 31.0183 140.55C31.784 140.256 32.5492 139.962 33.3145 139.666C34.949 139.036 36.5856 138.412 38.223 137.79C42.2393 136.264 46.2441 134.708 50.25 133.155C51.5404 132.656 52.8311 132.159 54.1227 131.663C54.9203 131.356 55.7184 131.048 56.5161 130.741C57.0592 130.533 57.0592 130.533 57.6131 130.321C58.5577 129.956 59.497 129.58 60.4356 129.2C60.8862 129.022 61.3369 128.844 61.8016 128.662C63.1732 127.785 63.4974 126.973 64.1141 125.476C64.2214 125.224 64.3283 124.972 64.4387 124.712C64.7873 123.886 65.1251 123.056 65.4633 122.225C65.8263 121.36 66.1917 120.497 66.558 119.634C66.8081 119.043 67.0574 118.452 67.3064 117.86C68.594 114.805 69.9836 111.801 71.392 108.8C71.6205 108.311 71.8491 107.822 72.0776 107.334C72.5983 106.222 73.1202 105.11 73.6433 104C72.2949 104.449 71.1426 105.063 69.8863 105.73C69.3552 106.01 68.8241 106.289 68.2926 106.568C68.0116 106.716 67.7306 106.864 67.4409 107.016C53.3074 114.415 38.3214 120.9 22.8135 124.8C22.4669 124.888 22.1203 124.976 21.7633 125.067C18.0291 125.988 14.3818 126.543 10.5311 126.6C10.0501 126.611 10.05 126.611 9.55936 126.622C6.91661 126.594 4.42316 125.929 2.4452 124.1C0.191483 121.642 -0.183945 119.395 -0.12471 116.112C0.309945 111.551 3.78199 107.595 6.92903 104.5C7.2104 104.223 7.49135 103.946 7.78112 103.661C12.5299 99.0744 17.9427 95.4584 23.4139 91.8C23.8045 91.5388 23.8045 91.5388 24.2028 91.2724C32.1054 86 32.1054 86 33.6199 86C33.4302 85.6124 33.24 85.2244 33.0443 84.8248C31.5202 81.1976 31.8512 77.3356 33.2401 73.6984C35.924 68.262 40.7901 64.2708 45.6269 60.8C45.8658 60.6284 46.1048 60.4568 46.3509 60.28C52.4725 55.9364 60.5805 50.3772 68.4403 51.2C70.5155 51.868 71.8815 52.6892 73.2431 54.4C74.1676 56.5844 74.2036 58.5264 73.6433 60.8C71.7286 64.7072 67.9524 66.8948 64.0377 68.4C63.6002 68.5732 63.1628 68.7464 62.7121 68.9248C61.0988 69.3372 59.8464 69.4808 58.3095 68.7752C57.3153 67.6344 57.2857 66.6872 57.2337 65.2C57.5915 64.1932 57.8413 63.7204 58.7546 63.15C59.0396 63.0344 59.3245 62.9192 59.6179 62.8C59.9313 62.668 60.2447 62.536 60.5677 62.4C60.8955 62.268 61.2232 62.136 61.561 62C64.6232 60.7752 64.6232 60.7752 67.2396 58.8C67.3716 58.404 67.5037 58.008 67.6398 57.6C58.1122 58.7216 47.2963 66.3008 41.1823 73.3752C39.5602 75.5144 38.4183 77.6596 38.4227 80.4C38.678 81.2036 38.9438 82.0044 39.2231 82.8C39.6002 82.6708 39.9772 82.542 40.3658 82.4088C41.7842 81.924 43.2039 81.4436 44.6243 80.964C45.2351 80.7572 45.8458 80.5492 46.4558 80.3404C56.5169 76.8948 56.5169 76.8948 60.4356 78C61.461 78.65 61.461 78.65 62.0365 79.6C62.3287 81.3528 62.2386 82.1116 61.2124 83.5764C59.9949 84.958 58.6081 85.7872 56.9836 86.6248C56.687 86.778 56.3908 86.9312 56.085 87.0888C51.4635 89.3704 46.9265 90.5596 41.7746 90.3C37.4813 90.1364 34.7405 91.698 31.2185 94C30.8462 94.238 30.4736 94.476 30.0902 94.7212C23.1429 99.1752 16.3021 103.795 10.4063 109.6C10.0925 109.908 9.7791 110.217 9.45571 110.534C7.58301 112.495 6.15898 114.504 5.60345 117.2C5.66028 118.362 5.87841 118.926 6.40392 120C11.9476 121.847 18.6099 119.88 24.0142 118.4C24.3664 118.306 24.7191 118.212 25.0821 118.114C37.8984 114.631 50.6346 109.352 62.4019 103.232C63.3501 102.742 64.3027 102.261 65.2556 101.78C67.0587 100.864 68.8429 99.9168 70.6191 98.95C71.2759 98.5968 71.9367 98.2512 72.6023 97.9156C77.9634 95.1992 80.1127 91.7236 82.667 86.3864C83.626 84.4308 84.6982 82.5424 85.7752 80.65C85.989 80.2724 86.2027 79.8948 86.4228 79.5056C99.5565 56.468 99.5565 56.468 105.662 52.4C108.501 52.13 108.501 52.13 109.84 53.1248C111.355 55.246 111.134 57.9056 110.865 60.4C110.011 65.332 108.247 69.92 106.062 74.4C105.873 74.7936 105.684 75.1868 105.49 75.592C102.223 81.9848 97.2099 86.7832 91.6539 91.2C91.1576 91.6028 90.6613 92.006 90.1654 92.4092C89.6443 92.8312 89.1232 93.2532 88.6021 93.6752C88.3631 93.87 88.1242 94.0648 87.878 94.2652C87.6411 94.4556 87.4046 94.646 87.1604 94.842C86.9183 95.0376 86.6761 95.2328 86.4268 95.4336C85.6504 96 85.6504 96 84.7786 96.4648C81.5035 98.2612 80.3164 101.265 78.7963 104.5C78.5062 105.099 78.2152 105.698 77.9242 106.297C74.8544 112.65 72.0228 119.117 69.2407 125.6C73.9959 123.957 78.7271 122.266 83.4306 120.482C112.558 109.448 141.972 98.928 171.644 89.4364C171.947 89.3392 172.25 89.242 172.563 89.142C173.358 88.888 174.154 88.6356 174.949 88.3832C176.064 88.0436 176.064 88.0436 176.904 87.6C176.734 87.1904 176.564 86.7812 176.39 86.3592C175.758 84.8324 175.133 83.3028 174.51 81.7724C174.24 81.1116 173.968 80.452 173.694 79.7928C173.3 78.8424 172.913 77.8896 172.526 76.936C172.404 76.644 172.281 76.3524 172.155 76.0516C171.433 74.2496 171.072 72.7736 171.301 70.8C172.782 68.4664 176.065 67.342 178.48 66.25C178.868 66.07 179.256 65.89 179.656 65.7048C180.605 65.2656 181.555 64.8308 182.507 64.4C182.243 64.136 181.979 63.872 181.707 63.6C181.438 61.0112 181.987 59.4152 183.308 57.2C182.779 56.936 182.251 56.672 181.707 56.4C181.827 55.1028 181.957 54.5408 182.923 53.6344C187.915 50.3336 187.915 50.3336 190.036 50.4752C190.912 50.8 190.912 50.8 191.712 51.6C191.897 53.0376 191.889 53.7456 191.054 54.9516C190.768 55.2396 190.482 55.528 190.187 55.8248C189.021 57.016 188.123 58.1412 187.31 59.6C190.049 57.6276 192.669 55.5664 195.215 53.35C195.471 53.1272 195.727 52.9048 195.991 52.6752C197.054 51.7456 198.106 50.8096 199.139 49.8452C199.412 49.5912 199.686 49.3368 199.967 49.0752C200.297 48.7556 200.297 48.7556 200.633 48.4296C201.585 47.8324 202.219 47.838 203.319 48C204.12 49.2 204.12 49.2 204.145 50.1C203.697 51.2592 203.318 51.6576 202.431 52.4952C193.479 61.25 187.954 74.178 183.308 85.6C183.691 85.48 184.074 85.3604 184.469 85.2368C215.269 75.6232 246.27 66.6768 278.313 57.5008C279.397 57.1904 280.481 56.88 281.565 56.5696C292.286 53.4992 303.009 50.436 313.736 47.3836C315.067 47.0044 316.398 46.6256 317.728 46.2464C321.108 45.2832 324.488 44.3224 327.87 43.3668C328.841 43.092 329.812 42.8164 330.783 42.5396C332.086 42.1688 333.389 41.8012 334.693 41.4344C335.066 41.3276 335.439 41.2204 335.823 41.1104C336.334 40.968 336.334 40.968 336.855 40.8224C337.146 40.74 337.437 40.658 337.737 40.5728C338.709 40.378 339.611 40.3708 340.6 40.4ZM105.262 59.6C100.13 66.35 95.5225 73.4768 91.2536 80.8C90.9394 81.3272 90.6253 81.8544 90.3111 82.3812C90.0077 82.8956 89.7051 83.4104 89.4025 83.9248C89.2601 84.1624 89.118 84.4 88.9711 84.6448C88.6397 85.216 88.3423 85.8068 88.0518 86.4C88.1838 86.664 88.3159 86.928 88.452 87.2C96.656 80.2744 103.832 72.2524 105.662 61.2C105.531 60.2868 105.531 60.2868 105.262 59.6ZM181.081 69.5C180.611 69.7156 180.141 69.9312 179.656 70.1532C179.21 70.3644 178.763 70.576 178.303 70.7936C177.891 70.9864 177.479 71.1792 177.055 71.3776C176.073 71.908 176.073 71.908 175.721 72.746C175.698 73.8696 175.994 74.6292 176.424 75.6672C176.584 76.0572 176.744 76.4472 176.909 76.8492C177.081 77.2536 177.252 77.6584 177.429 78.0752C177.596 78.484 177.763 78.8932 177.935 79.3148C178.624 81.3944 178.624 81.3944 180.106 82.8C182.035 79.38 183.755 75.9072 185.309 72.3C185.468 71.9332 185.627 71.5664 185.791 71.1888C185.937 70.844 186.084 70.4992 186.234 70.1436C186.365 69.8364 186.495 69.5288 186.63 69.212C186.975 68.354 186.975 68.354 186.91 67.2C184.933 67.2 182.838 68.6692 181.081 69.5Z" fill="#173957"/>
<path d="M191.587 11.85C192.901 11.8664 193.665 12.0768 194.714 12.8748C195.715 14 195.715 14 195.89 15.1C195.715 16 195.715 16 195.314 16.4C194.817 16.3524 194.32 16.3052 193.808 16.2564C192.935 16.2216 192.935 16.2216 192.113 16.4C191.264 17.332 190.788 18.0136 190.211 19.1C190.046 19.388 189.88 19.6764 189.708 19.9732C189.351 20.5936 188.998 21.2168 188.649 21.842C187.947 23.0912 187.206 24.316 186.464 25.5416C185.86 26.5404 185.26 27.5416 184.661 28.5436C183.129 31.1024 181.58 33.6516 180.031 36.2C179.889 36.4332 179.747 36.6664 179.601 36.9068C178.871 38.1072 178.141 39.3076 177.411 40.508C176.007 42.816 174.605 45.1244 173.202 47.4332C172.761 48.1592 172.32 48.8852 171.879 49.6108C171.611 50.0524 171.342 50.4936 171.066 50.9484C170.83 51.336 170.595 51.7232 170.353 52.1224C169.732 53.1468 169.115 54.1728 168.499 55.2C168.937 55.2992 169.374 55.398 169.825 55.5C171.3 56 171.3 56 172.101 56.7C172.644 57.9216 172.419 58.7272 172.101 60C172.343 59.88 172.584 59.7596 172.833 59.636C173.153 59.484 173.472 59.3316 173.802 59.1748C174.118 59.022 174.433 58.8688 174.759 58.7108C175.807 58.3656 176.283 58.428 177.304 58.8C177.512 59.8392 177.512 59.8392 177.304 61.2C176.324 62.2384 175.163 62.9876 173.977 63.7748C173.649 64.0016 173.32 64.228 172.982 64.4612C172.026 65.116 171.064 65.7592 170.1 66.4C169.637 66.7148 169.174 67.03 168.712 67.3452C165.635 69.3848 165.635 69.3848 163.696 69.6C163.3 69.468 162.903 69.336 162.495 69.2C162.13 68.0532 161.907 67.198 162.437 66.0768C162.953 65.308 163.499 64.578 164.071 63.85C164.264 63.5936 164.457 63.3376 164.655 63.0736C165.13 62.4444 165.613 61.8216 166.097 61.2C161.098 62.6176 158.637 66.95 156.217 71.2C155.652 72.1772 155.083 73.152 154.511 74.1252C154.374 74.3588 154.236 74.5928 154.095 74.834C152.91 76.824 151.576 78.6288 150.088 80.4C149.786 80.764 149.786 80.764 149.478 81.1356C148.903 81.8208 148.322 82.4988 147.737 83.1748C147.532 83.4128 147.327 83.6508 147.116 83.896C145.59 85.6632 144.036 87.404 142.459 89.1264C141.665 89.9984 141.665 89.9984 140.939 90.9796C136.831 95.8716 128.516 101.243 122.158 102.161C120.236 102.232 118.77 102.112 117.269 100.8C116.244 99.0584 116.149 97.5756 116.468 95.6C117.827 91.4808 120.682 88.5908 123.672 85.6C123.965 85.3056 124.256 85.0108 124.557 84.7076C126.52 82.7276 128.493 80.7592 130.476 78.8C129.676 78.9236 128.874 79.0472 128.073 79.1712C127.275 79.2 127.275 79.2 126.274 78.6C125.666 77.5876 125.348 76.838 125.414 75.6452C126.03 73.6392 127.605 72.032 128.875 70.4C129.35 69.7132 129.818 69.022 130.276 68.3252C130.47 68.0304 130.665 67.736 130.864 67.4328C131.069 67.1196 131.069 67.1196 131.277 66.8C128.824 68.0636 127.764 68.9808 126.874 71.6C126.478 71.996 126.478 71.996 126.074 72.4C124.673 72.35 124.673 72.35 123.272 72C122.672 71.2748 122.672 71.2748 122.472 70.4C122.798 67.7184 125.47 65.618 127.448 64.0064C129.557 62.5904 131.358 62.0372 133.907 62.192C134.879 62.4 134.879 62.4 136.155 63.25C137.037 64.6488 137.122 65.1696 136.88 66.8C136.202 67.8724 135.368 68.7744 134.504 69.7C134.058 70.1932 133.612 70.6868 133.167 71.1812C132.968 71.3964 132.769 71.6116 132.564 71.8332C132.036 72.402 132.036 72.402 131.677 73.2C131.882 73.0896 132.086 72.9796 132.296 72.866C136.485 70.6156 140.7 68.4784 145.035 66.5252C153.411 62.7348 161.253 59.1696 165.638 50.75C166.613 48.9412 167.742 47.2388 168.874 45.5252C172.888 39.4332 176.68 33.204 180.407 26.934C189.238 12.0888 189.238 12.0888 191.587 11.85ZM144.91 71.8748C144.672 72.0524 144.434 72.23 144.189 72.4128C139.571 75.9456 135.28 79.8496 131.172 83.9568C130.47 84.6568 129.761 85.3504 129.052 86.0436C126.041 89.0232 123.516 91.9388 122.071 96C122.071 96.396 122.071 96.792 122.071 97.2C124.496 97.0148 126.203 96.2488 128.3 95.05C128.615 94.8716 128.93 94.6928 129.255 94.5092C137.899 89.488 143.999 82.2236 149.613 74.1C149.829 73.788 150.045 73.476 150.267 73.1544C151.668 71.0988 152.92 68.9944 154.09 66.8C151.055 66.8 147.255 70.1196 144.91 71.8748Z" fill="#173957"/>
<path d="M255.9 34.825C256.55 35.6002 256.55 35.6002 256.801 36.825C256.452 39.021 255.381 40.5786 254.149 42.4002C254.512 42.1938 254.876 41.9874 255.25 41.775C256.55 41.2002 256.55 41.2002 257.501 41.325C257.716 41.4158 257.93 41.5066 258.151 41.6002C258.337 43.735 258.337 43.735 257.543 44.867C255.264 46.8734 252.862 48.4642 250.247 50.0002C249.757 50.2886 249.757 50.2886 249.257 50.583C247.569 51.5406 246.126 52.3066 244.143 52.4002C243.193 51.975 243.193 51.975 242.542 51.2002C242.363 50.0986 242.363 50.0986 242.542 48.8002C243.266 47.909 243.926 47.2082 244.769 46.4498C245.211 46.0314 245.652 45.6122 246.093 45.1922C246.415 44.8886 246.415 44.8886 246.745 44.5786C248.319 43.0614 249.735 41.417 250.947 39.6002C246.354 41.689 242.684 45.3926 239.19 48.9498C234.839 53.3714 234.839 53.3714 232.411 53.875C231.336 53.6002 231.336 53.6002 230.585 52.6002C230.437 52.2702 230.288 51.9398 230.135 51.6002C231.918 49.7754 233.725 48.017 235.677 46.3734C238.311 44.0086 240.389 41.4818 242.397 38.5734C243.886 36.5018 243.886 36.5018 245.191 35.9842C246.144 36.0002 246.144 36.0002 246.923 36.2358C248.178 36.4862 248.957 35.9598 250.097 35.425C252.097 34.487 253.79 33.8814 255.9 34.825Z" fill="#173957"/>
<path d="M227.333 40.8C228.359 41.45 228.359 41.45 228.934 42.4C229.05 44.8216 227.398 46.8428 226.133 48.8C226.44 48.6036 226.747 48.4072 227.063 48.2048C228.22 47.5512 228.833 47.4884 230.135 47.6C230.435 48.25 230.435 48.25 230.535 49.2C228.865 52.8716 224.553 54.8544 221.205 56.8C220.937 56.9592 220.669 57.1184 220.393 57.2824C218.786 58.1888 217.621 58.6624 215.727 58.4C214.526 57.6 214.526 57.6 214.251 56.55C214.62 54.7392 215.508 54.0604 216.838 52.8296C218.178 51.58 219.341 50.192 220.529 48.8C220.763 48.5284 220.997 48.2564 221.238 47.9764C221.803 47.3188 222.367 46.6596 222.931 46C219.106 47.6592 216.072 50.3504 213.195 53.328C212.218 54.3072 211.166 55.1932 210.114 56.0908C209.316 56.806 208.6 57.5648 207.872 58.35C206.964 59.2636 206.509 59.6048 205.27 60.0752C203.776 59.9776 203.175 59.4248 202.119 58.4C202.558 57.0836 202.858 56.8128 203.895 55.95C204.183 55.7052 204.47 55.46 204.767 55.208C205.082 54.9412 205.397 54.6748 205.721 54.4C208.621 51.8852 211.257 49.3548 213.516 46.2436C213.691 46.006 213.866 45.768 214.047 45.5232C214.394 45.0484 214.736 44.5696 215.071 44.0864C216.274 42.4424 216.274 42.4424 217.574 42.2248C218.528 42.4 218.528 42.4 219.729 42.8C220.734 42.4028 220.734 42.4028 221.805 41.8248C223.822 40.8704 225.119 40.4504 227.333 40.8Z" fill="#173957"/>
</g>
<defs>
<clipPath id="clip0_181_2661">
<rect width="341" height="160" fill="white"/>
</clipPath>
</defs>
</svg>
