<svg width="383" height="180" viewBox="0 0 383 180" fill="none" xmlns="http://www.w3.org/2000/svg">
<g clip-path="url(#clip0_180_753)">
<path d="M382.55 45.45C382.699 46.1925 382.847 46.935 383 47.7C380.64 49.014 378.217 49.7187 375.623 50.4405C375.153 50.5737 374.684 50.7069 374.2 50.8437C373.173 51.1349 372.146 51.4242 371.119 51.7127C368.563 52.4313 366.01 53.1576 363.456 53.883C362.544 54.1418 361.633 54.4005 360.721 54.6593C353.923 56.588 347.136 58.554 340.351 60.525C340.032 60.6173 339.714 60.71 339.386 60.8049C310.888 69.0809 282.404 77.4077 253.985 85.95C253.65 86.0504 253.315 86.1512 252.971 86.2547C217.34 96.9647 181.993 108.482 146.964 121.029C145.679 121.489 144.394 121.948 143.109 122.408C132.055 126.361 121.042 130.426 110.051 134.55C109.744 134.665 109.438 134.78 109.122 134.898C102.592 137.349 96.0679 139.815 89.5654 142.34C89.0957 142.523 88.6259 142.705 88.1418 142.893C85.9791 143.735 83.8177 144.579 81.6591 145.429C81.2779 145.578 80.8967 145.728 80.5038 145.881C79.8034 146.156 79.1035 146.431 78.4049 146.709C77.0752 147.228 76.0629 147.6 74.6222 147.6C74.5403 147.871 74.4585 148.143 74.3745 148.423C74.2616 148.782 74.1483 149.142 74.0324 149.513C73.9227 149.868 73.813 150.223 73.7002 150.588C73.1014 152.078 72.6379 153.125 71.1095 153.822C70.0113 154.202 68.9064 154.536 67.7906 154.859C67.3672 154.988 66.9437 155.116 66.5077 155.248C65.1078 155.67 63.7053 156.083 62.3023 156.497C61.3295 156.787 60.3572 157.078 59.3849 157.37C57.3467 157.979 55.3076 158.584 53.2677 159.186C50.6487 159.959 48.0324 160.741 45.4175 161.526C43.4099 162.127 41.4014 162.725 39.392 163.322C38.4269 163.609 37.4617 163.897 36.4971 164.186C35.1512 164.588 33.8035 164.986 32.4549 165.382C31.8539 165.563 31.8538 165.563 31.2407 165.748C30.6904 165.908 30.6905 165.908 30.129 166.071C29.8103 166.165 29.492 166.259 29.1638 166.356C28.3205 166.5 28.3205 166.5 26.9719 166.05C26.3251 164.884 26.076 164.031 26.058 162.697C26.5224 161.55 26.5224 161.55 27.9982 160.728C28.6689 160.462 29.3432 160.206 30.0202 159.957C30.3893 159.814 30.7583 159.67 31.1382 159.522C32.3686 159.046 33.6034 158.583 34.8387 158.119C35.6987 157.788 36.5582 157.457 37.4177 157.125C39.2536 156.416 41.0917 155.713 42.9307 155.014C47.4417 153.297 51.9398 151.547 56.4391 149.8C57.8884 149.238 59.3381 148.679 60.7888 148.121C61.6847 147.775 62.581 147.429 63.4769 147.083C64.087 146.849 64.087 146.849 64.7091 146.611C65.77 146.201 66.8251 145.778 67.8792 145.35C68.3854 145.15 68.8916 144.95 69.4135 144.744C70.954 143.758 71.3181 142.844 72.0108 141.161C72.1313 140.877 72.2513 140.594 72.3754 140.301C72.7669 139.371 73.1463 138.438 73.5262 137.503C73.9339 136.53 74.3443 135.559 74.7557 134.588C75.0366 133.923 75.3167 133.258 75.5963 132.593C77.0424 129.156 78.6032 125.776 80.1851 122.4C80.4418 121.85 80.6985 121.3 80.9551 120.75C81.54 119.5 82.1262 118.249 82.7137 117C81.1992 117.505 79.905 118.196 78.4939 118.946C77.8974 119.261 77.3009 119.575 76.7039 119.889C76.3884 120.056 76.0728 120.222 75.7473 120.393C59.8731 128.717 43.0413 136.013 25.6234 140.4C25.2341 140.499 24.8448 140.598 24.4438 140.7C20.2497 141.737 16.1531 142.361 11.8282 142.425C11.2878 142.438 11.2878 142.438 10.7367 142.45C7.76845 142.418 4.9679 141.67 2.74632 139.613C0.215012 136.847 -0.206656 134.319 -0.140126 130.626C0.348064 125.495 4.24775 121.044 7.78241 117.563C8.09843 117.251 8.41398 116.94 8.73944 116.619C14.0731 111.459 20.1526 107.391 26.2977 103.275C26.7364 102.981 26.7364 102.981 27.1837 102.681C36.0597 96.75 36.0597 96.75 37.7607 96.75C37.5476 96.314 37.3341 95.8775 37.1143 95.4279C35.4024 91.3473 35.7742 87.0026 37.3341 82.9107C40.3486 76.7948 45.814 72.3047 51.2466 68.4C51.5149 68.207 51.7833 68.0139 52.0598 67.815C58.9354 62.9285 68.0419 56.6744 76.8698 57.6C79.2006 58.3515 80.7349 59.2754 82.2642 61.2C83.3026 63.6575 83.343 65.8422 82.7137 68.4C80.5631 72.7956 76.3218 75.2567 71.925 76.95C71.4336 77.1449 70.9423 77.3397 70.4361 77.5404C68.6241 78.0044 67.2175 78.1659 65.4913 77.3721C64.3747 76.0887 64.3414 75.0231 64.283 73.35C64.6848 72.2174 64.9653 71.6855 65.9912 71.0438C66.3112 70.9137 66.6313 70.7841 66.9608 70.65C67.3128 70.5015 67.6648 70.353 68.0275 70.2C68.3957 70.0515 68.7639 69.903 69.1433 69.75C72.5826 68.3721 72.5826 68.3721 75.5212 66.15C75.6696 65.7045 75.8179 65.259 75.9707 64.8C65.2697 66.0618 53.1216 74.5884 46.2546 82.5471C44.4326 84.9537 43.1501 87.3671 43.155 90.45C43.4418 91.3541 43.7403 92.255 44.0541 93.15C44.4776 93.0047 44.901 92.8598 45.3375 92.7099C46.9306 92.1645 48.5251 91.6241 50.1205 91.0845C50.8065 90.8519 51.4925 90.6179 52.1776 90.383C63.4778 86.5067 63.4778 86.5067 67.8792 87.75C69.0309 88.4813 69.0309 88.4813 69.6773 89.55C70.0055 91.5219 69.9043 92.3756 68.7517 94.0235C67.3843 95.5778 65.8266 96.5106 64.002 97.4529C63.6689 97.6253 63.3363 97.7976 62.9928 97.9749C57.8021 100.542 52.7062 101.88 46.9199 101.588C42.0977 101.403 39.0194 103.16 35.0635 105.75C34.6454 106.018 34.2269 106.286 33.7963 106.561C25.9933 111.572 18.3099 116.77 11.6879 123.3C11.3355 123.647 10.9835 123.994 10.6203 124.351C8.51693 126.557 6.9175 128.817 6.29356 131.85C6.35739 133.158 6.60238 133.792 7.19262 135C13.4191 137.078 20.9019 134.865 26.9719 133.2C27.3675 133.094 27.7636 132.988 28.1713 132.879C42.5662 128.96 56.8711 123.021 70.0878 116.136C71.1527 115.584 72.2226 115.043 73.2929 114.502C75.318 113.472 77.322 112.406 79.317 111.319C80.0547 110.921 80.7969 110.533 81.5445 110.155C87.5659 107.099 89.9799 103.189 92.8488 97.1847C93.9259 94.9847 95.1302 92.8602 96.3399 90.7313C96.5799 90.3065 96.82 89.8817 97.0672 89.4438C111.819 63.5265 111.819 63.5265 118.676 58.95C121.864 58.6463 121.864 58.6463 123.368 59.7654C125.071 62.1518 124.823 65.1438 124.52 67.95C123.561 73.4985 121.58 78.66 119.126 83.7C118.913 84.1428 118.701 84.5852 118.483 85.041C114.813 92.2329 109.183 97.6311 102.943 102.6C102.385 103.053 101.828 103.507 101.271 103.96C100.685 104.435 100.1 104.91 99.5149 105.385C99.2465 105.604 98.9781 105.823 98.7017 106.048C98.4356 106.263 98.1699 106.477 97.8957 106.697C97.6237 106.917 97.3518 107.137 97.0717 107.363C96.1996 108 96.1996 108 95.2205 108.523C91.542 110.544 90.2087 113.923 88.5014 117.563C88.1755 118.237 87.8487 118.91 87.5219 119.584C84.074 126.731 80.8935 134.006 77.7689 141.3C83.1097 139.451 88.4236 137.55 93.7065 135.543C126.422 123.129 159.458 111.294 192.784 100.616C193.125 100.507 193.466 100.397 193.817 100.285C194.71 99.999 195.604 99.7151 196.497 99.4311C197.749 99.0491 197.749 99.0491 198.692 98.55C198.502 98.0892 198.311 97.6289 198.115 97.1541C197.405 95.4365 196.703 93.7157 196.004 91.994C195.7 91.2506 195.395 90.5085 195.088 89.7669C194.645 88.6977 194.21 87.6258 193.776 86.553C193.638 86.2245 193.5 85.8965 193.359 85.5581C192.548 83.5308 192.142 81.8703 192.399 79.65C194.063 77.0247 197.751 75.7598 200.463 74.5313C200.899 74.3288 201.335 74.1263 201.784 73.9179C202.849 73.4238 203.916 72.9347 204.986 72.45C204.689 72.153 204.393 71.856 204.087 71.55C203.786 68.6376 204.402 66.8421 205.885 64.35C205.292 64.053 204.698 63.756 204.087 63.45C204.222 61.9907 204.368 61.3584 205.453 60.3387C211.06 56.6253 211.06 56.6253 213.442 56.7846C214.426 57.15 214.426 57.15 215.325 58.05C215.532 59.6673 215.523 60.4638 214.586 61.8206C214.264 62.1446 213.943 62.469 213.611 62.8029C212.302 64.143 211.294 65.4089 210.38 67.05C213.456 64.8311 216.4 62.5122 219.258 60.0188C219.546 59.7681 219.834 59.5179 220.13 59.2596C221.325 58.2138 222.506 57.1608 223.666 56.0759C223.973 55.7901 224.28 55.5039 224.597 55.2096C224.967 54.8501 224.967 54.8501 225.345 54.4833C226.414 53.8115 227.126 53.8178 228.361 54C229.261 55.35 229.261 55.35 229.288 56.3625C228.785 57.6666 228.36 58.1148 227.364 59.0571C217.309 68.9063 211.104 83.4503 205.885 96.3C206.316 96.165 206.746 96.0305 207.19 95.8914C241.784 85.0761 276.603 75.0114 312.592 64.6884C313.81 64.3392 315.027 63.99 316.244 63.6408C328.286 60.1866 340.33 56.7405 352.377 53.3066C353.873 52.88 355.367 52.4538 356.862 52.0272C360.658 50.9436 364.455 49.8627 368.253 48.7877C369.344 48.4785 370.434 48.1685 371.525 47.8571C372.988 47.4399 374.452 47.0264 375.916 46.6137C376.335 46.4936 376.754 46.373 377.186 46.2492C377.759 46.089 377.759 46.089 378.345 45.9252C378.671 45.8325 378.998 45.7403 379.335 45.6444C380.426 45.4253 381.44 45.4172 382.55 45.45ZM118.227 67.05C112.462 74.6438 107.288 82.6614 102.493 90.9C102.14 91.4931 101.787 92.0862 101.434 92.6789C101.094 93.2576 100.754 93.8367 100.414 94.4154C100.254 94.6827 100.094 94.95 99.9294 95.2254C99.5571 95.868 99.2231 96.5327 98.8968 97.2C99.0451 97.497 99.1935 97.794 99.3463 98.1C108.561 90.3087 116.62 81.284 118.676 68.85C118.529 67.8227 118.529 67.8227 118.227 67.05ZM203.385 78.1875C202.856 78.4301 202.328 78.6726 201.784 78.9224C201.282 79.16 200.781 79.398 200.264 79.6428C199.801 79.8597 199.338 80.0766 198.862 80.2998C197.759 80.8965 197.759 80.8965 197.364 81.8393C197.338 83.1033 197.671 83.9579 198.154 85.1256C198.333 85.5644 198.513 86.0031 198.699 86.4554C198.891 86.9103 199.084 87.3657 199.282 87.8346C199.47 88.2945 199.658 88.7549 199.85 89.2292C200.625 91.5687 200.625 91.5687 202.289 93.15C204.455 89.3025 206.388 85.3956 208.133 81.3375C208.312 80.9249 208.49 80.5122 208.674 80.0874C208.838 79.6995 209.003 79.3116 209.172 78.9116C209.319 78.566 209.465 78.2199 209.617 77.8635C210.004 76.8983 210.004 76.8983 209.931 75.6C207.71 75.6 205.357 77.2529 203.385 78.1875Z" fill="white"/>
<path d="M215.185 13.3313C216.66 13.3497 217.518 13.5864 218.696 14.4842C219.82 15.75 219.82 15.75 220.017 16.9875C219.82 18 219.82 18 219.371 18.45C218.812 18.3965 218.254 18.3434 217.678 18.2885C216.698 18.2493 216.698 18.2493 215.774 18.45C214.821 19.4985 214.286 20.2653 213.639 21.4875C213.453 21.8115 213.267 22.136 213.074 22.4699C212.673 23.1678 212.276 23.8689 211.885 24.5723C211.095 25.9776 210.264 27.3555 209.43 28.7343C208.751 29.858 208.078 30.9843 207.406 32.1116C205.684 34.9902 203.945 37.8581 202.204 40.725C202.045 40.9874 201.886 41.2497 201.722 41.5202C200.902 42.8706 200.082 44.2211 199.262 45.5715C197.685 48.168 196.11 50.765 194.535 53.3624C194.04 54.1791 193.544 54.9959 193.048 55.8122C192.747 56.309 192.446 56.8053 192.136 57.317C191.871 57.753 191.607 58.1886 191.334 58.6377C190.637 59.7902 189.944 60.9444 189.252 62.1C189.744 62.2116 190.235 62.3228 190.741 62.4375C192.399 63 192.399 63 193.298 63.7875C193.908 65.1618 193.656 66.0681 193.298 67.5C193.569 67.365 193.841 67.2296 194.12 67.0905C194.479 66.9195 194.838 66.7481 195.208 66.5717C195.563 66.3998 195.918 66.2274 196.283 66.0497C197.461 65.6613 197.995 65.7315 199.142 66.15C199.376 67.3191 199.376 67.3191 199.142 68.85C198.041 70.0182 196.737 70.8611 195.405 71.7467C195.036 72.0018 194.668 72.2565 194.287 72.5189C193.214 73.2555 192.134 73.9791 191.05 74.7C190.531 75.0542 190.011 75.4088 189.491 75.7634C186.036 78.0579 186.036 78.0579 183.858 78.3C183.413 78.1515 182.968 78.003 182.509 77.85C182.099 76.5599 181.848 75.5978 182.444 74.3364C183.024 73.4715 183.637 72.6503 184.279 71.8313C184.496 71.5428 184.712 71.2548 184.935 70.9578C185.468 70.25 186.011 69.5493 186.555 68.85C180.94 70.4448 178.176 75.3188 175.457 80.1C174.823 81.1994 174.184 82.296 173.542 83.3909C173.387 83.6537 173.233 83.9169 173.074 84.1883C171.743 86.427 170.245 88.4574 168.574 90.45C168.235 90.8595 168.235 90.8595 167.888 91.2776C167.243 92.0484 166.59 92.8112 165.933 93.5717C165.703 93.8394 165.473 94.1072 165.236 94.383C163.521 96.3711 161.776 98.3295 160.005 100.267C159.113 101.248 159.113 101.248 158.298 102.352C153.684 107.856 144.345 113.898 137.203 114.931C135.046 115.011 133.398 114.876 131.712 113.4C130.561 111.441 130.454 109.773 130.813 107.55C132.339 102.916 135.546 99.6647 138.905 96.3C139.233 95.9688 139.561 95.6372 139.899 95.2961C142.103 93.0686 144.319 90.8541 146.547 88.65C145.647 88.7891 144.747 88.9281 143.847 89.0676C142.951 89.1 142.951 89.1 141.827 88.425C141.144 87.2861 140.787 86.4428 140.861 85.1009C141.553 82.8441 143.321 81.036 144.749 79.2C145.281 78.4274 145.807 77.6498 146.322 76.8659C146.54 76.5342 146.758 76.203 146.982 75.8619C147.212 75.5096 147.212 75.5096 147.446 75.15C144.691 76.5716 143.501 77.6034 142.501 80.55C142.056 80.9955 142.056 80.9955 141.602 81.45C140.029 81.3938 140.029 81.3938 138.455 81C137.781 80.1842 137.781 80.1842 137.556 79.2C137.923 76.1832 140.924 73.8203 143.146 72.0072C145.514 70.4142 147.537 69.7919 150.4 69.966C151.492 70.2 151.492 70.2 152.925 71.1563C153.916 72.7299 154.011 73.3158 153.739 75.15C152.977 76.3565 152.041 77.3712 151.07 78.4125C150.569 78.9674 150.069 79.5227 149.569 80.0789C149.346 80.321 149.122 80.5631 148.892 80.8124C148.299 81.4523 148.299 81.4523 147.895 82.35C148.125 82.2258 148.354 82.1021 148.591 81.9743C153.295 79.4426 158.029 77.0382 162.899 74.8409C172.306 70.5767 181.114 66.5658 186.039 57.0938C187.134 55.0589 188.403 53.1437 189.674 51.2159C194.182 44.3624 198.441 37.3545 202.627 30.3008C212.546 13.5999 212.546 13.5999 215.185 13.3313ZM162.758 80.8592C162.491 81.059 162.224 81.2588 161.949 81.4644C156.762 85.4388 151.942 89.8308 147.328 94.4514C146.539 95.2389 145.743 96.0192 144.947 96.7991C141.565 100.151 138.729 103.431 137.107 108C137.107 108.446 137.107 108.891 137.107 109.35C139.829 109.142 141.747 108.28 144.103 106.931C144.456 106.731 144.81 106.529 145.175 106.323C154.883 100.674 161.735 92.5016 168.04 83.3625C168.282 83.0115 168.525 82.6605 168.775 82.2987C170.349 79.9862 171.755 77.6187 173.069 75.15C169.66 75.15 165.392 78.8846 162.758 80.8592Z" fill="white"/>
<path d="M287.419 39.1782C288.149 40.0503 288.149 40.0503 288.43 41.4282C288.038 43.8987 286.836 45.651 285.452 47.7003C285.86 47.4681 286.268 47.2359 286.688 46.9969C288.149 46.3503 288.149 46.3503 289.217 46.4907C289.458 46.5928 289.699 46.695 289.947 46.8003C290.156 49.2019 290.156 49.2019 289.264 50.4754C286.704 52.7326 284.007 54.5223 281.069 56.2503C280.519 56.5747 280.519 56.5747 279.958 56.9059C278.062 57.9832 276.44 58.845 274.214 58.9503C273.146 58.4719 273.146 58.4719 272.415 57.6003C272.214 56.361 272.214 56.361 272.415 54.9003C273.228 53.8977 273.97 53.1093 274.916 52.2561C275.412 51.7854 275.908 51.3138 276.403 50.8413C276.766 50.4997 276.766 50.4997 277.136 50.151C278.904 48.4441 280.494 46.5942 281.856 44.5503C276.696 46.9002 272.574 51.0667 268.651 55.0686C263.763 60.0429 263.763 60.0429 261.036 60.6094C259.829 60.3003 259.829 60.3003 258.986 59.1753C258.819 58.804 258.652 58.4323 258.48 58.0503C260.483 55.9974 262.512 54.0192 264.705 52.1701C267.663 49.5097 269.997 46.6671 272.252 43.3951C273.925 41.0646 273.925 41.0646 275.39 40.4823C276.461 40.5003 276.461 40.5003 277.336 40.7653C278.745 41.047 279.62 40.4548 280.9 39.8532C283.147 38.7979 285.048 38.1166 287.419 39.1782Z" fill="white"/>
<path d="M255.333 45.9C256.485 46.6313 256.485 46.6313 257.131 47.7C257.261 50.4243 255.406 52.6982 253.985 54.9C254.33 54.6791 254.674 54.4581 255.029 54.2304C256.329 53.4951 257.017 53.4245 258.48 53.55C258.817 54.2813 258.817 54.2813 258.93 55.35C257.054 59.4806 252.21 61.7112 248.45 63.9C248.149 64.0791 247.848 64.2582 247.538 64.4427C245.734 65.4624 244.425 65.9952 242.297 65.7C240.948 64.8 240.948 64.8 240.639 63.6188C241.054 61.5816 242.052 60.818 243.545 59.4333C245.05 58.0275 246.357 56.466 247.691 54.9C247.954 54.5945 248.216 54.2885 248.487 53.9735C249.122 53.2337 249.756 52.4921 250.388 51.75C246.092 53.6166 242.685 56.6442 239.454 59.994C238.356 61.0956 237.175 62.0924 235.993 63.1022C235.097 63.9068 234.293 64.7604 233.475 65.6438C232.455 66.6716 231.944 67.0554 230.553 67.5846C228.874 67.4748 228.2 66.8529 227.013 65.7C227.506 64.2191 227.844 63.9144 229.008 62.9438C229.331 62.6684 229.654 62.3925 229.987 62.109C230.341 61.8089 230.695 61.5092 231.059 61.2C234.316 58.3709 237.277 55.5242 239.814 52.0241C240.011 51.7568 240.208 51.489 240.41 51.2136C240.8 50.6795 241.184 50.1408 241.56 49.5972C242.911 47.7477 242.911 47.7477 244.372 47.5029C245.444 47.7 245.444 47.7 246.792 48.15C247.921 47.7032 247.921 47.7032 249.124 47.0529C251.39 45.9792 252.847 45.5067 255.333 45.9Z" fill="white"/>
</g>
<defs>
<clipPath id="clip0_180_753">
<rect width="383" height="180" fill="white"/>
</clipPath>
</defs>
</svg>
